<svg width="24" height="10" viewBox="0 0 24 10" fill="none" xmlns="http://www.w3.org/2000/svg">
<path fill-rule="evenodd" clip-rule="evenodd" d="M19.7071 9.70711C19.3166 10.0976 18.6834 10.0976 18.2929 9.70711C17.9324 9.34662 17.9047 8.77939 18.2097 8.3871L18.2929 8.29289L20.5858 6L1 6C0.447715 6 -3.88832e-07 5.55229 -4.37114e-07 5C-4.85396e-07 4.44772 0.447715 4 0.999999 4L20.5858 4L18.2929 1.70711C17.9024 1.31658 17.9024 0.683418 18.2929 0.292894C18.6534 -0.0675902 19.2206 -0.0953203 19.6129 0.209705L19.7071 0.292894L23.7071 4.29289C24.0676 4.65338 24.0953 5.22061 23.7903 5.6129C23.7649 5.64559 23.7371 5.67707 23.7071 5.70711L19.7071 9.70711Z" fill="white"/>
</svg>
