<svg width="56" height="56" viewBox="0 0 56 56" fill="none" xmlns="http://www.w3.org/2000/svg">
<path fill-rule="evenodd" clip-rule="evenodd" d="M2.51088 0H53.4891C54.8759 0 56 1.12406 56 2.51088V53.4894C56 54.8759 54.8759 56 53.4891 56H2.51088C1.12406 56 0 54.8759 0 53.4894V2.51088C0 1.12406 1.12406 0 2.51088 0ZM49.985 10.0083V12.6113H35.9247V14.8148H45.9193V25.4173H43.2949V17.4512H35.8886C35.9986 20.7123 34.8332 23.385 32.4223 25.3994L32.2074 25.5792L30.4719 23.8469L30.6631 23.6305C30.8514 23.4176 31.044 23.2099 31.2361 23.0032C31.659 22.5481 32.0581 22.1181 32.4015 21.6422C33.1696 20.5774 33.5083 19.2961 33.5004 17.4876C33.4895 14.9225 33.4869 12.357 33.4845 9.79192L33.481 5.62296L33.7939 5.62912C34.0221 5.63399 34.2517 5.62093 34.4739 5.60828L34.4892 5.60742C35.0042 5.5775 35.491 5.54935 35.9227 5.72794L36.1411 5.81827L36.1098 6.05258C36.0801 6.27165 36.0488 6.47517 36.0189 6.66784L36.0185 6.6704L36.0184 6.67054C35.9579 7.06002 35.9056 7.39648 35.8925 7.73002C35.8695 8.31267 35.8742 8.88842 35.8791 9.49738V9.49752V9.49766V9.4978V9.49795L35.8793 9.51596L35.8805 9.67008L35.8805 9.67949L35.8806 9.68046C35.8814 9.78449 35.8822 9.8889 35.8828 9.99368H40.8022V4.73556H41.1089C41.3239 4.73556 41.5324 4.73321 41.7362 4.73087L41.763 4.73059H41.763C42.2349 4.7257 42.6811 4.72107 43.133 4.74582C43.5656 4.76958 43.7131 4.97955 43.7623 5.10272C43.8225 5.25287 43.8336 5.49656 43.5444 5.80507C43.4849 5.86842 43.4573 5.92062 43.4538 5.93586C43.4459 7.07874 43.4465 8.23653 43.4471 9.42327V9.42769V10.0083H49.985ZM25.3372 23.6306C25.1487 23.4174 24.956 23.2095 24.7636 23.0027L24.7605 22.9993L24.7604 22.9993C24.3393 22.5457 23.9413 22.1171 23.5991 21.6423C22.8311 20.5775 22.492 19.2962 22.5 17.4877C22.5111 14.9009 22.5135 12.3138 22.5158 9.72665L22.5193 5.62308L22.2064 5.62924C21.9724 5.63364 21.7381 5.62044 21.5114 5.60754C20.9955 5.57734 20.5093 5.54918 20.0776 5.72807L19.8592 5.81839L19.8908 6.05271C19.9197 6.2682 19.9508 6.46865 19.9803 6.65854L19.9803 6.65891L19.9804 6.65912L19.9818 6.66796L19.9833 6.67804C20.0431 7.06439 20.0948 7.39871 20.1079 7.73014C20.1313 8.31842 20.1263 8.89995 20.121 9.5155C20.1199 9.67415 20.1187 9.83339 20.1178 9.9938H15.1981V4.73539H14.8914C14.6767 4.73539 14.4682 4.73334 14.2641 4.73099C13.7826 4.72571 13.3274 4.72073 12.8676 4.74595C12.4348 4.7697 12.2875 4.97938 12.2383 5.10255C12.1779 5.2527 12.1667 5.49669 12.4562 5.8052C12.5008 5.85271 12.5273 5.89379 12.5389 5.91173C12.5427 5.9177 12.5449 5.92111 12.5456 5.92133C12.5547 7.07857 12.5541 8.23611 12.5535 9.42255L12.5535 9.42782L12.5532 10.0085H6.01562V12.6114H20.0762V14.815H10.0814V25.4174H12.7057V17.4514H20.1117C20.002 20.7124 21.1671 23.3851 23.578 25.3995L23.7929 25.5793L25.5284 23.847L25.3372 23.6306ZM49.985 43.3885V45.9915H43.4471V46.5718V46.5758C43.4465 47.763 43.4459 48.9207 43.455 50.0789C43.4556 50.079 43.4578 50.0824 43.4618 50.0886C43.4735 50.1065 43.5001 50.1476 43.5444 50.1948C43.8336 50.5033 43.8225 50.7473 43.7623 50.8974C43.7128 51.0203 43.5656 51.2306 43.1327 51.254C42.8632 51.269 42.5949 51.2734 42.3218 51.2734C42.1551 51.2734 41.9863 51.2716 41.8143 51.2698L41.7377 51.269C41.5333 51.2666 41.3245 51.2643 41.1089 51.2643H40.8022V46.0065H35.8828C35.8822 46.1138 35.8813 46.2206 35.8805 46.327L35.8805 46.3282L35.8805 46.3294L35.8793 46.4839L35.8791 46.5019V46.502V46.5022C35.8742 47.1112 35.8695 47.6871 35.8925 48.2701C35.9056 48.6013 35.9573 48.9359 36.0172 49.3224L36.0186 49.3314C36.0488 49.5244 36.0801 49.7279 36.1098 49.9475L36.1411 50.1819L35.9227 50.2719C35.4907 50.4502 35.0042 50.4223 34.4883 50.3924L34.4719 50.3915C34.2506 50.3786 34.0231 50.3653 33.7939 50.3704L33.481 50.3766L33.4845 46.2079C33.4869 43.6428 33.4895 41.0774 33.5004 38.5119C33.5083 36.704 33.1696 35.4225 32.4015 34.3576C32.0581 33.8817 31.659 33.4518 31.2361 32.9966L31.2335 32.9938C31.0423 32.788 30.8505 32.5816 30.6631 32.3694L30.4719 32.1532L32.2074 30.4209L32.4223 30.6007C34.8332 32.6148 35.9986 35.2876 35.8886 38.5483H43.2949V30.5825H45.9193V41.185H35.9247V43.3885H49.985ZM29.9312 27.9999C29.9312 26.9342 29.0673 26.0702 28.0016 26.0702C26.9362 26.0702 26.0723 26.9342 26.0723 27.9999C26.0723 29.0656 26.9362 29.9292 28.0016 29.9292C29.0673 29.9292 29.9312 29.0656 29.9312 27.9999ZM20.1117 38.5486C20.002 35.2879 21.1671 32.6151 23.578 30.6007L23.7929 30.4209L25.5284 32.1532L25.3372 32.3696C25.1487 32.5828 24.956 32.7908 24.7636 32.9975L24.7605 33.0009C24.3393 33.4545 23.9413 33.8832 23.5991 34.3579C22.8311 35.4228 22.492 36.704 22.5 38.5122C22.5111 41.0994 22.5135 43.6862 22.5158 46.2733L22.5196 49.7839L22.5193 50.3769L22.2064 50.3704C21.9733 50.3666 21.739 50.3795 21.512 50.3924C20.9964 50.4226 20.5096 50.4505 20.0776 50.2719L19.8592 50.1819L19.8908 49.9478C19.9197 49.7317 19.9508 49.5308 19.9803 49.3406L19.9818 49.3314C20.0425 48.9411 20.0947 48.6041 20.1079 48.2701C20.1313 47.6816 20.1263 47.1004 20.121 46.4847V46.4845C20.1199 46.3258 20.1187 46.1666 20.1178 46.0065H15.1981V51.2646H14.8914C14.6761 51.2646 14.4673 51.2669 14.2629 51.2693C14.2208 51.2696 14.1789 51.27 14.1372 51.2704C13.9821 51.2719 13.8296 51.2734 13.6785 51.2734C13.4054 51.2734 13.1374 51.2693 12.8676 51.2543C12.435 51.2308 12.2875 51.0209 12.2383 50.8977C12.1779 50.7473 12.1667 50.5036 12.4559 50.1948C12.5157 50.1314 12.543 50.0795 12.5471 50.0643C12.5547 48.9217 12.5541 47.7648 12.5535 46.5785L12.5535 46.5721L12.5532 45.9915H6.01562V43.3885H20.0762V41.1853H10.0814V30.5825H12.7057V38.5486H20.1117Z" fill="black"/>
</svg>
